<svg width="113" height="126" viewBox="0 0 113 126" fill="none" xmlns="http://www.w3.org/2000/svg">
<path opacity="0.2" d="M54.1892 70.4011C57.6141 68.7001 60.8141 66.5407 63.6747 63.9999C66.486 61.4377 68.9599 58.5673 71.0254 55.4712C73.0932 52.4711 74.8032 49.2975 76.1186 46.0189C77.4488 42.7457 78.1868 39.3597 78.299 36.0157C78.348 34.3306 78.1369 32.6836 77.6722 31.1258C77.2129 29.4981 76.3607 28.0399 75.1762 26.8547C73.8362 25.548 72.0005 24.7715 69.9614 24.6489C67.8639 24.5756 65.6993 25.0745 63.7185 26.0877C62.7862 26.5422 61.8839 27.0632 61.0208 27.6457C60.2107 28.2246 59.4274 28.8392 58.674 29.4869C57.9479 30.1084 57.259 30.7684 56.6114 31.4626L55.5781 32.5116L54.6821 33.5566C52.4461 36.2485 50.4634 39.103 48.762 42.0796C47.0551 44.9804 45.7608 48.0366 44.9176 51.1573C44.1206 54.1175 43.7704 57.1089 43.8779 60.0382L43.9014 61.0976L44.0294 62.1306C44.1077 62.8091 44.188 63.5161 44.2832 64.1681C44.507 65.4823 44.8052 66.7745 45.1768 68.0394C45.3962 68.7709 45.6585 69.4882 45.9207 70.2054C45.1492 70.4334 44.4353 70.5921 43.6071 70.814C40.5412 71.5195 37.4487 71.8422 34.4126 71.7732C31.5125 71.6716 28.7114 71.146 26.1057 70.2145C21.2099 68.2816 17.0106 65.2497 13.8235 61.3466C10.8401 57.6867 8.47876 53.5724 6.80744 49.1223C5.26132 45.054 4.08802 40.8245 3.299 36.4752C2.56242 32.6755 2.10531 28.7957 1.93071 24.8615C1.64251 19.0995 2.37245 13.1919 4.09162 7.37294C5.40824 3.20269 6.67355 0.904816 6.41109 0.904748C5.97653 1.38616 5.62081 1.92189 5.35876 2.48958C4.49577 4.04743 3.75241 5.64861 3.13526 7.27897C1.01356 13.1755 -0.0241961 19.2304 0.0705046 25.1606C0.0897982 29.2125 0.409432 33.2168 1.0271 37.1449C1.69303 41.6509 2.76063 46.0429 4.21923 50.2768C5.83543 54.9936 8.19246 59.3692 11.2201 63.2733C14.5531 67.588 19.0192 70.9643 24.2715 73.1398C27.1605 74.2441 30.2807 74.8903 33.5218 75.0553C36.9134 75.1913 40.3782 74.8768 43.8178 74.1208C45.0041 73.8756 46.1845 73.5684 47.3534 73.2008C48.6235 75.8252 50.1609 78.3002 51.9471 80.5957C56.7607 86.657 62.6102 91.8747 69.3065 96.0805C74.1311 99.1636 79.2712 101.834 84.677 104.065C90.6394 106.584 96.9698 108.442 103.559 109.608L105.64 109.889L103.63 110.634C101.483 111.488 99.4419 112.418 97.5049 113.322C94.0953 114.964 90.7864 116.833 87.6071 118.914C82.1678 122.479 79.2858 125.253 79.5601 125.603C79.8344 125.954 83.2262 123.952 88.706 121.062C91.4752 119.635 94.7655 117.971 98.4972 116.364C100.371 115.548 102.34 114.742 104.386 113.972C105.422 113.593 106.47 113.206 107.532 112.84C108.069 112.653 108.554 112.516 109.331 112.195C110.356 111.797 111.263 111.11 111.914 110.237C112.251 109.764 112.492 109.244 112.62 108.709C112.714 108.29 112.749 107.869 112.727 107.456C112.676 106.851 112.556 106.262 112.367 105.7C112.098 104.793 111.805 103.903 111.538 103.025C110.973 101.274 110.407 99.5995 109.858 98.002C108.714 94.8397 107.574 92.093 106.523 89.7334C104.456 85.169 102.764 82.4853 102.238 82.7399C101.712 82.9944 102.405 86.1363 103.764 91.0488L106.24 99.6208C106.71 101.232 107.196 102.917 107.697 104.676C107.945 105.552 108.207 106.449 108.47 107.345C108.478 107.369 108.492 107.39 108.511 107.406C107.756 107.145 106.67 106.811 105.092 106.395C98.973 104.717 93.0382 102.641 87.3257 100.18C82.198 97.9024 77.3068 95.2511 72.69 92.2469C66.3661 88.1988 60.8292 83.221 56.2479 77.4653C54.7633 75.539 53.459 73.4828 52.3467 71.3154C52.9771 71.0344 53.6075 70.7534 54.224 70.452L54.1892 70.4011ZM50.1145 65.8933C49.7675 64.7794 49.4861 63.6402 49.2715 62.4804C49.1753 61.9037 49.1148 61.3027 49.0355 60.6996L48.9294 59.8011L48.9088 58.874C48.7857 56.3619 49.0707 53.7905 49.7543 51.2462C50.463 48.5508 51.5631 45.9087 53.0216 43.3989C54.5199 40.7139 56.2774 38.138 58.2684 35.709L59.0302 34.8005L59.8338 33.9532C60.3606 33.3913 60.9157 32.8527 61.4965 32.34C62.0594 31.8063 62.6272 31.4336 63.2726 30.9183C63.8633 30.5129 64.4819 30.1505 65.1221 29.8349C66.1824 29.2002 67.3857 28.887 68.5448 28.944C69.7038 29.0011 70.7535 29.4252 71.5305 30.1503C73.1432 31.9858 73.9399 34.3939 73.7841 36.962C73.7155 39.8172 73.1171 42.7127 72.0158 45.5187C70.8623 48.4749 69.3533 51.3407 67.5214 54.0543C65.7425 56.8064 63.5954 59.3633 61.1433 61.6501C58.654 63.8873 55.864 65.792 52.8739 67.2957C52.2286 67.6317 51.5694 67.9474 50.9151 68.2447C50.6111 67.4663 50.326 66.6899 50.0489 65.8484" fill="#5B1727"/>
</svg>
